# Blender v2.83.0 OBJ File: 'tim.blend'
# www.blender.org
mtllib tim.mtl
o Cube
v 0.800000 1.000000 -0.800000
v 0.800000 -1.000000 -0.800000
v 0.800000 1.000000 0.800000
v 0.800000 -1.000000 0.800000
v -0.800000 1.000000 -0.800000
v -0.800000 -1.000000 -0.800000
v -0.800000 1.000000 0.800000
v -0.800000 -1.000000 0.800000
v 0.800000 3.516052 0.800000
v -0.800000 3.516052 0.800000
v 0.800000 3.516052 -0.800000
v -0.800000 3.516052 -0.800000
vt 0.625000 1.000000
vt 0.625000 0.750000
vt 0.625000 0.750000
vt 0.625000 1.000000
vt 0.375000 0.750000
vt 0.375000 1.000000
vt 0.375000 0.000000
vt 0.625000 0.000000
vt 0.625000 0.250000
vt 0.375000 0.250000
vt 0.125000 0.500000
vt 0.375000 0.500000
vt 0.125000 0.750000
vt 0.625000 0.500000
vt 0.625000 0.500000
vt 0.875000 0.500000
vt 0.875000 0.750000
vt 0.625000 0.000000
vt 0.625000 0.250000
vn 0.0000 0.0000 1.0000
vn -1.0000 0.0000 0.0000
vn 0.0000 -1.0000 0.0000
vn 1.0000 0.0000 0.0000
vn 0.0000 0.0000 -1.0000
vn 0.0000 1.0000 0.0000
usemtl Material
s off
f 7/1/1 3/2/1 9/3/1 10/4/1
f 4/5/1 3/2/1 7/1/1 8/6/1
f 8/7/2 7/8/2 5/9/2 6/10/2
f 6/11/3 2/12/3 4/5/3 8/13/3
f 2/12/4 1/14/4 3/2/4 4/5/4
f 6/10/5 5/9/5 1/14/5 2/12/5
f 11/15/6 12/16/6 10/17/6 9/3/6
f 5/9/2 7/8/2 10/18/2 12/19/2
f 3/2/4 1/14/4 11/15/4 9/3/4
f 1/14/5 5/9/5 12/19/5 11/15/5
o Cube.001
v -1.057549 3.454375 1.026326
v -1.057549 5.454375 1.026326
v -1.057549 3.454375 -0.973674
v -1.057549 5.454375 -0.973674
v 0.942451 3.454375 1.026326
v 0.942451 5.454375 1.026326
v 0.942451 3.454375 -0.973674
v 0.942451 5.454375 -0.973674
vt 0.375000 0.000000
vt 0.625000 0.000000
vt 0.625000 0.250000
vt 0.375000 0.250000
vt 0.625000 0.500000
vt 0.375000 0.500000
vt 0.625000 0.750000
vt 0.375000 0.750000
vt 0.625000 1.000000
vt 0.375000 1.000000
vt 0.125000 0.500000
vt 0.125000 0.750000
vt 0.875000 0.500000
vt 0.875000 0.750000
vn -1.0000 0.0000 0.0000
vn 0.0000 0.0000 -1.0000
vn 1.0000 0.0000 0.0000
vn 0.0000 0.0000 1.0000
vn 0.0000 -1.0000 0.0000
vn 0.0000 1.0000 0.0000
usemtl Material.002
s off
f 13/20/7 14/21/7 16/22/7 15/23/7
f 15/23/8 16/22/8 20/24/8 19/25/8
f 19/25/9 20/24/9 18/26/9 17/27/9
f 17/27/10 18/26/10 14/28/10 13/29/10
f 15/30/11 19/25/11 17/27/11 13/31/11
f 20/24/12 16/32/12 14/33/12 18/26/12
o Cube.002
v 0.896087 4.476267 0.719803
v 0.896087 4.816267 0.719803
v 0.896087 4.476267 0.299803
v 0.896087 4.816267 0.299803
v 0.996087 4.476267 0.719803
v 0.996087 4.816267 0.719803
v 0.996087 4.476267 0.299803
v 0.996087 4.816267 0.299803
v 1.470080 3.268664 -0.427264
vt 0.375000 0.000000
vt 0.625000 0.000000
vt 0.625000 0.250000
vt 0.375000 0.250000
vt 0.625000 0.500000
vt 0.375000 0.500000
vt 0.625000 0.750000
vt 0.375000 0.750000
vt 0.625000 1.000000
vt 0.375000 1.000000
vt 0.125000 0.500000
vt 0.125000 0.750000
vt 0.875000 0.500000
vt 0.875000 0.750000
vn -1.0000 0.0000 0.0000
vn 0.0000 0.0000 -1.0000
vn 1.0000 0.0000 0.0000
vn 0.0000 0.0000 1.0000
vn 0.0000 -1.0000 0.0000
vn 0.0000 1.0000 0.0000
usemtl eye
s off
f 21/34/13 22/35/13 24/36/13 23/37/13
f 23/37/14 24/36/14 28/38/14 27/39/14
f 27/39/15 28/38/15 26/40/15 25/41/15
f 25/41/16 26/40/16 22/42/16 21/43/16
f 23/44/17 27/39/17 25/41/17 21/45/17
f 28/38/18 24/46/18 22/47/18 26/40/18
o Cube.003
v 0.890000 4.480000 -0.290000
v 0.890000 4.820000 -0.290000
v 0.890000 4.480000 -0.710000
v 0.890000 4.820000 -0.710000
v 0.990000 4.480000 -0.290000
v 0.990000 4.820000 -0.290000
v 0.990000 4.480000 -0.710000
v 0.990000 4.820000 -0.710000
v 1.463994 3.272397 -1.437068
vt 0.375000 0.000000
vt 0.625000 0.000000
vt 0.625000 0.250000
vt 0.375000 0.250000
vt 0.625000 0.500000
vt 0.375000 0.500000
vt 0.625000 0.750000
vt 0.375000 0.750000
vt 0.625000 1.000000
vt 0.375000 1.000000
vt 0.125000 0.500000
vt 0.125000 0.750000
vt 0.875000 0.500000
vt 0.875000 0.750000
vn -1.0000 0.0000 0.0000
vn 0.0000 0.0000 -1.0000
vn 1.0000 0.0000 0.0000
vn 0.0000 0.0000 1.0000
vn 0.0000 -1.0000 0.0000
vn 0.0000 1.0000 0.0000
usemtl eye
s off
f 30/48/19 31/49/19 33/50/19 32/51/19
f 32/51/20 33/50/20 37/52/20 36/53/20
f 36/53/21 37/52/21 35/54/21 34/55/21
f 34/55/22 35/54/22 31/56/22 30/57/22
f 32/58/23 36/53/23 34/55/23 30/59/23
f 37/52/24 33/60/24 31/61/24 35/54/24
o Plane
v 1.007357 4.735741 -0.427873
v 1.007357 4.535741 -0.427873
v 1.007357 4.735741 -0.587873
v 1.007357 4.535741 -0.587873
vt 0.000000 0.000000
vt 1.000000 0.000000
vt 1.000000 1.000000
vt 0.000000 1.000000
vn 1.0000 0.0000 0.0000
usemtl Material.003
s off
f 39/62/25 40/63/25 42/64/25 41/65/25
o Plane.001
v 1.004040 4.734722 0.585376
v 1.004040 4.534722 0.585376
v 1.004040 4.734722 0.425376
v 1.004040 4.534722 0.425376
vt 0.000000 0.000000
vt 1.000000 0.000000
vt 1.000000 1.000000
vt 0.000000 1.000000
vn 1.0000 0.0000 0.0000
usemtl Material.003
s off
f 43/66/26 44/67/26 46/68/26 45/69/26
o Cube.004
v -0.147991 -0.970000 0.080000
v -0.147991 0.830000 0.080000
v -0.147991 -0.970000 -0.080000
v -0.147991 0.830000 -0.080000
v 0.852009 -0.970000 0.080000
v 0.852009 0.830000 0.080000
v 0.852009 -0.970000 -0.080000
v 0.852009 0.830000 -0.080000
vt 0.375000 0.000000
vt 0.625000 0.000000
vt 0.625000 0.250000
vt 0.375000 0.250000
vt 0.625000 0.500000
vt 0.375000 0.500000
vt 0.625000 0.750000
vt 0.375000 0.750000
vt 0.625000 1.000000
vt 0.375000 1.000000
vt 0.125000 0.500000
vt 0.125000 0.750000
vt 0.875000 0.500000
vt 0.875000 0.750000
vn -1.0000 0.0000 0.0000
vn 0.0000 0.0000 -1.0000
vn 1.0000 0.0000 0.0000
vn 0.0000 0.0000 1.0000
vn 0.0000 -1.0000 0.0000
vn 0.0000 1.0000 0.0000
usemtl Material.004
s off
f 47/70/27 48/71/27 50/72/27 49/73/27
f 49/73/28 50/72/28 54/74/28 53/75/28
f 53/75/29 54/74/29 52/76/29 51/77/29
f 51/77/30 52/76/30 48/78/30 47/79/30
f 49/80/31 53/75/31 51/77/31 47/81/31
f 54/74/32 50/82/32 48/83/32 52/76/32
o Plane.002_Plane.003
v 0.972790 4.138606 0.265254
v 0.972790 3.678606 0.265254
v 0.972790 4.138606 -0.274746
v 0.972790 3.678606 -0.274746
vt 0.000000 0.000000
vt 1.000000 0.000000
vt 1.000000 1.000000
vt 0.000000 1.000000
vn 1.0000 0.0000 0.0000
usemtl Material.008
s off
f 55/84/33 56/85/33 58/86/33 57/87/33
o Plane.003_Plane.004
v 1.002794 3.988606 0.160000
v 1.002794 3.688606 0.160000
v 1.002794 3.988606 -0.180000
v 1.002794 3.688606 -0.180000
vt 0.000000 0.000000
vt 1.000000 0.000000
vt 1.000000 1.000000
vt 0.000000 1.000000
vn 1.0000 0.0000 0.0000
usemtl Material.005
s off
f 59/88/34 60/89/34 62/90/34 61/91/34
o Cube.005
v -0.350000 0.900000 1.130000
v -0.350000 2.900000 1.130000
v -0.350000 0.900000 0.770000
v -0.350000 2.900000 0.770000
v 0.450000 0.900000 1.130000
v 0.450000 2.900000 1.130000
v 0.450000 0.900000 0.770000
v 0.450000 2.900000 0.770000
vt 0.375000 0.000000
vt 0.625000 0.000000
vt 0.625000 0.250000
vt 0.375000 0.250000
vt 0.625000 0.500000
vt 0.375000 0.500000
vt 0.625000 0.750000
vt 0.375000 0.750000
vt 0.625000 1.000000
vt 0.375000 1.000000
vt 0.125000 0.500000
vt 0.125000 0.750000
vt 0.875000 0.500000
vt 0.875000 0.750000
vn -1.0000 0.0000 0.0000
vn 0.0000 0.0000 -1.0000
vn 1.0000 0.0000 0.0000
vn 0.0000 0.0000 1.0000
vn 0.0000 -1.0000 0.0000
vn 0.0000 1.0000 0.0000
usemtl Material.006
s off
f 63/92/35 64/93/35 66/94/35 65/95/35
f 65/95/36 66/94/36 70/96/36 69/97/36
f 69/97/37 70/96/37 68/98/37 67/99/37
f 67/99/38 68/98/38 64/100/38 63/101/38
f 65/102/39 69/97/39 67/99/39 63/103/39
f 70/96/40 66/104/40 64/105/40 68/98/40
o Cube.006
v -0.350000 0.900000 -0.770000
v -0.350000 2.900000 -0.770000
v -0.350000 0.900000 -1.130000
v -0.350000 2.900000 -1.130000
v 0.450000 0.900000 -0.770000
v 0.450000 2.900000 -0.770000
v 0.450000 0.900000 -1.130000
v 0.450000 2.900000 -1.130000
vt 0.375000 0.000000
vt 0.625000 0.000000
vt 0.625000 0.250000
vt 0.375000 0.250000
vt 0.625000 0.500000
vt 0.375000 0.500000
vt 0.625000 0.750000
vt 0.375000 0.750000
vt 0.625000 1.000000
vt 0.375000 1.000000
vt 0.125000 0.500000
vt 0.125000 0.750000
vt 0.875000 0.500000
vt 0.875000 0.750000
vn -1.0000 0.0000 0.0000
vn 0.0000 0.0000 -1.0000
vn 1.0000 0.0000 0.0000
vn 0.0000 0.0000 1.0000
vn 0.0000 -1.0000 0.0000
vn 0.0000 1.0000 0.0000
usemtl Material.007
s off
f 71/106/41 72/107/41 74/108/41 73/109/41
f 73/109/42 74/108/42 78/110/42 77/111/42
f 77/111/43 78/110/43 76/112/43 75/113/43
f 75/113/44 76/112/44 72/114/44 71/115/44
f 73/116/45 77/111/45 75/113/45 71/117/45
f 78/110/46 74/118/46 72/119/46 76/112/46
o Cube.007
v -0.180428 5.466553 0.250667
v -0.180428 6.246553 0.250667
v -0.180428 5.466553 -0.489333
v -0.180428 6.246553 -0.489333
v 0.499572 5.466553 0.250667
v 0.499572 6.246553 0.250667
v 0.499572 5.466553 -0.489333
v 0.499572 6.246553 -0.489333
v 0.041616 5.728752 -0.023394
v 0.041616 6.508752 -0.023394
v 0.041616 5.728752 -0.763394
v 0.041616 6.508752 -0.763394
v 0.721616 5.728752 -0.023394
v 0.721616 6.508752 -0.023394
v 0.721616 5.728752 -0.763394
v 0.721616 6.508752 -0.763394
v -0.816144 5.446566 0.885255
v -0.816144 6.226566 0.885255
v -0.816144 5.446566 0.145255
v -0.816144 6.226566 0.145255
v -0.136144 5.446566 0.885255
v -0.136144 6.226566 0.885255
v -0.136144 5.446566 0.145255
v -0.136144 6.226566 0.145255
v -0.816144 5.446566 1.031196
v -0.816144 6.226566 1.031196
v -0.136144 6.226566 1.031196
v -0.136144 5.446566 1.031196
v -0.110257 5.386209 0.786381
v -0.110257 6.166208 0.786381
v -0.110257 5.386209 0.046381
v -0.110257 6.166208 0.046381
v 0.569743 5.386209 0.786381
v 0.569743 6.166208 0.786381
v 0.569743 5.386209 0.046381
v 0.569743 6.166208 0.046381
v -0.110257 5.386209 0.046381
v -0.110257 5.386209 0.786381
v -0.110257 6.166208 0.786381
v -0.110257 6.166208 0.046381
v 0.569743 5.386209 0.046381
v 0.569743 6.166208 0.046381
v 0.569743 5.386209 0.786381
v 0.569743 6.166208 0.786381
v -0.110257 5.386209 1.002258
v -0.110257 6.166208 1.002258
v 0.569743 6.166208 1.002258
v 0.569743 5.386209 1.002258
v 0.335960 5.447940 0.902259
v 0.335960 6.227940 0.902259
v 0.335960 5.447940 0.162259
v 0.335960 6.227940 0.162259
v 1.015960 5.447940 0.902259
v 1.015960 6.227940 0.902259
v 1.015960 5.447940 0.162259
v 1.015960 6.227940 0.162259
v 0.335960 5.447940 1.049121
v 0.335960 6.227940 1.049121
v 1.015960 6.227940 1.049121
v 1.015960 5.447940 1.049121
v 0.335960 5.447940 1.118098
v 0.335960 6.227940 1.118098
v 1.015960 6.227940 1.118098
v 1.015960 5.447940 1.118098
v 0.353373 5.391649 0.183199
v 0.353373 6.171649 0.183199
v 0.353373 5.391649 -0.556801
v 0.353373 6.171649 -0.556801
v 1.033373 5.391649 0.183199
v 1.033373 6.171649 0.183199
v 1.033373 5.391649 -0.556801
v 1.033373 6.171649 -0.556801
v 0.375151 5.425361 -0.443603
v 0.375151 6.205361 -0.443603
v 0.375151 5.425361 -1.183603
v 0.375151 6.205361 -1.183603
v 1.055151 5.425361 -0.443603
v 1.055151 6.205361 -0.443603
v 1.055151 5.425361 -1.183603
v 1.055151 6.205361 -1.183603
v -0.884080 5.462986 0.367779
v -0.884080 6.162986 0.367779
v -0.884080 5.462986 -0.872221
v -0.884080 6.162986 -0.872221
v 0.875920 5.462986 0.367779
v 0.875920 6.162986 0.367779
v 0.875920 5.462986 -0.872221
v 0.875920 6.162986 -0.872221
v -0.884080 5.462986 0.612327
v -0.884080 6.162986 0.612327
v 0.875920 6.162986 0.612327
v 0.875920 5.462986 0.612327
vt 0.375000 0.000000
vt 0.625000 0.000000
vt 0.625000 0.250000
vt 0.375000 0.250000
vt 0.625000 0.500000
vt 0.375000 0.500000
vt 0.625000 0.750000
vt 0.375000 0.750000
vt 0.625000 1.000000
vt 0.375000 1.000000
vt 0.125000 0.500000
vt 0.125000 0.750000
vt 0.875000 0.500000
vt 0.875000 0.750000
vt 0.375000 0.000000
vt 0.625000 0.000000
vt 0.625000 0.250000
vt 0.375000 0.250000
vt 0.625000 0.500000
vt 0.375000 0.500000
vt 0.625000 0.750000
vt 0.375000 0.750000
vt 0.625000 1.000000
vt 0.375000 1.000000
vt 0.125000 0.500000
vt 0.125000 0.750000
vt 0.875000 0.500000
vt 0.875000 0.750000
vt 0.375000 0.000000
vt 0.625000 0.000000
vt 0.625000 0.250000
vt 0.375000 0.250000
vt 0.625000 0.500000
vt 0.375000 0.500000
vt 0.625000 0.750000
vt 0.375000 0.750000
vt 0.875000 0.750000
vt 0.875000 0.750000
vt 0.625000 0.750000
vt 0.125000 0.500000
vt 0.125000 0.750000
vt 0.875000 0.500000
vt 0.375000 0.750000
vt 0.625000 1.000000
vt 0.375000 1.000000
vt 0.375000 0.000000
vt 0.625000 0.000000
vt 0.125000 0.750000
vt 0.375000 0.000000
vt 0.375000 0.250000
vt 0.625000 0.250000
vt 0.625000 0.000000
vt 0.375000 0.500000
vt 0.625000 0.500000
vt 0.375000 0.750000
vt 0.625000 0.750000
vt 0.875000 0.750000
vt 0.625000 0.750000
vt 0.875000 0.750000
vt 0.125000 0.500000
vt 0.125000 0.750000
vt 0.875000 0.500000
vt 0.375000 0.000000
vt 0.625000 0.000000
vt 0.625000 0.250000
vt 0.375000 0.250000
vt 0.625000 0.500000
vt 0.375000 0.500000
vt 0.625000 0.750000
vt 0.375000 0.750000
vt 0.625000 1.000000
vt 0.375000 1.000000
vt 0.125000 0.500000
vt 0.125000 0.750000
vt 0.875000 0.500000
vt 0.875000 0.750000
vt 0.375000 0.750000
vt 0.375000 1.000000
vt 0.625000 1.000000
vt 0.625000 0.000000
vt 0.375000 0.000000
vt 0.125000 0.750000
vt 0.375000 0.000000
vt 0.625000 0.000000
vt 0.625000 0.250000
vt 0.375000 0.250000
vt 0.625000 0.500000
vt 0.375000 0.500000
vt 0.625000 0.750000
vt 0.375000 0.750000
vt 0.875000 0.750000
vt 0.875000 0.750000
vt 0.625000 0.750000
vt 0.125000 0.500000
vt 0.125000 0.750000
vt 0.875000 0.500000
vt 0.875000 0.750000
vt 0.625000 0.750000
vt 0.375000 0.750000
vt 0.375000 0.000000
vt 0.625000 0.000000
vt 0.125000 0.750000
vt 0.375000 0.750000
vt 0.625000 1.000000
vt 0.375000 1.000000
vt 0.125000 0.750000
vt 0.375000 0.000000
vt 0.625000 0.000000
vt 0.375000 0.000000
vt 0.625000 0.000000
vt 0.625000 0.250000
vt 0.375000 0.250000
vt 0.625000 0.500000
vt 0.375000 0.500000
vt 0.625000 0.750000
vt 0.375000 0.750000
vt 0.625000 1.000000
vt 0.375000 1.000000
vt 0.125000 0.500000
vt 0.125000 0.750000
vt 0.875000 0.500000
vt 0.875000 0.750000
vt 0.375000 0.000000
vt 0.625000 0.000000
vt 0.625000 0.250000
vt 0.375000 0.250000
vt 0.625000 0.500000
vt 0.375000 0.500000
vt 0.625000 0.750000
vt 0.375000 0.750000
vt 0.625000 1.000000
vt 0.375000 1.000000
vt 0.125000 0.500000
vt 0.125000 0.750000
vt 0.875000 0.500000
vt 0.875000 0.750000
vt 0.375000 0.000000
vt 0.625000 0.000000
vt 0.625000 0.250000
vt 0.375000 0.250000
vt 0.625000 0.500000
vt 0.375000 0.500000
vt 0.625000 0.750000
vt 0.375000 0.750000
vt 0.875000 0.750000
vt 0.875000 0.750000
vt 0.625000 0.750000
vt 0.125000 0.500000
vt 0.125000 0.750000
vt 0.875000 0.500000
vt 0.375000 0.750000
vt 0.625000 1.000000
vt 0.375000 1.000000
vt 0.375000 0.000000
vt 0.625000 0.000000
vt 0.125000 0.750000
vn -1.0000 0.0000 0.0000
vn 0.0000 0.0000 -1.0000
vn 1.0000 0.0000 0.0000
vn 0.0000 0.0000 1.0000
vn 0.0000 -1.0000 0.0000
vn 0.0000 1.0000 0.0000
usemtl Material.009
s off
f 79/120/47 80/121/47 82/122/47 81/123/47
f 81/123/48 82/122/48 86/124/48 85/125/48
f 85/125/49 86/124/49 84/126/49 83/127/49
f 83/127/50 84/126/50 80/128/50 79/129/50
f 81/130/51 85/125/51 83/127/51 79/131/51
f 86/124/52 82/132/52 80/133/52 84/126/52
f 87/134/47 88/135/47 90/136/47 89/137/47
f 89/137/48 90/136/48 94/138/48 93/139/48
f 93/139/49 94/138/49 92/140/49 91/141/49
f 91/141/50 92/140/50 88/142/50 87/143/50
f 89/144/51 93/139/51 91/141/51 87/145/51
f 94/138/52 90/146/52 88/147/52 92/140/52
f 95/148/47 96/149/47 98/150/47 97/151/47
f 97/151/48 98/150/48 102/152/48 101/153/48
f 101/153/49 102/152/49 100/154/49 99/155/49
f 100/154/52 96/156/52 104/157/52 105/158/52
f 97/159/51 101/153/51 99/155/51 95/160/51
f 102/152/52 98/161/52 96/156/52 100/154/52
f 106/162/50 105/158/50 104/163/50 103/164/50
f 99/155/49 100/154/49 105/158/49 106/162/49
f 96/149/47 95/148/47 103/165/47 104/166/47
f 95/160/51 99/155/51 106/162/51 103/167/51
f 107/168/49 109/169/49 110/170/49 108/171/49
f 109/169/50 113/172/50 114/173/50 110/170/50
f 113/172/47 111/174/47 112/175/47 114/173/47
f 108/176/51 112/175/51 125/177/51 124/178/51
f 109/179/52 107/180/52 111/174/52 113/172/52
f 114/173/51 112/175/51 108/176/51 110/181/51
f 116/182/47 117/183/47 118/184/47 115/185/47
f 115/185/48 118/184/48 120/186/48 119/187/48
f 119/187/49 120/186/49 122/188/49 121/189/49
f 121/189/50 122/188/50 117/190/50 116/191/50
f 115/192/51 119/187/51 121/189/51 116/193/51
f 120/186/52 118/194/52 117/195/52 122/188/52
f 126/196/48 123/197/48 124/198/48 125/177/48
f 112/175/47 111/174/47 126/196/47 125/177/47
f 107/168/49 108/171/49 124/199/49 123/200/49
f 111/174/52 107/180/52 123/201/52 126/196/52
f 127/202/47 128/203/47 130/204/47 129/205/47
f 129/205/48 130/204/48 134/206/48 133/207/48
f 133/207/49 134/206/49 132/208/49 131/209/49
f 132/208/52 128/210/52 136/211/52 137/212/52
f 129/213/51 133/207/51 131/209/51 127/214/51
f 134/206/52 130/215/52 128/210/52 132/208/52
f 137/212/52 136/211/52 140/216/52 141/217/52
f 131/209/49 132/208/49 137/212/49 138/218/49
f 128/203/47 127/202/47 135/219/47 136/220/47
f 127/214/51 131/209/51 138/218/51 135/221/51
f 142/222/50 141/217/50 140/223/50 139/224/50
f 138/218/49 137/212/49 141/217/49 142/222/49
f 135/221/51 138/218/51 142/222/51 139/225/51
f 136/220/47 135/219/47 139/226/47 140/227/47
f 143/228/47 144/229/47 146/230/47 145/231/47
f 145/231/48 146/230/48 150/232/48 149/233/48
f 149/233/49 150/232/49 148/234/49 147/235/49
f 147/235/50 148/234/50 144/236/50 143/237/50
f 145/238/51 149/233/51 147/235/51 143/239/51
f 150/232/52 146/240/52 144/241/52 148/234/52
f 151/242/47 152/243/47 154/244/47 153/245/47
f 153/245/48 154/244/48 158/246/48 157/247/48
f 157/247/49 158/246/49 156/248/49 155/249/49
f 155/249/50 156/248/50 152/250/50 151/251/50
f 153/252/51 157/247/51 155/249/51 151/253/51
f 158/246/52 154/254/52 152/255/52 156/248/52
f 159/256/47 160/257/47 162/258/47 161/259/47
f 161/259/48 162/258/48 166/260/48 165/261/48
f 165/261/49 166/260/49 164/262/49 163/263/49
f 164/262/52 160/264/52 168/265/52 169/266/52
f 161/267/51 165/261/51 163/263/51 159/268/51
f 166/260/52 162/269/52 160/264/52 164/262/52
f 170/270/50 169/266/50 168/271/50 167/272/50
f 163/263/49 164/262/49 169/266/49 170/270/49
f 160/257/47 159/256/47 167/273/47 168/274/47
f 159/268/51 163/263/51 170/270/51 167/275/51
